<?xml version="1.0" encoding="UTF-8" standalone="no"?>
<!DOCTYPE svg PUBLIC "-//W3C//DTD SVG 1.1//EN" "http://www.w3.org/Graphics/SVG/1.1/DTD/svg11.dtd">
<svg version="1.1" xmlns="http://www.w3.org/2000/svg" xmlns:xlink="http://www.w3.org/1999/xlink" preserveAspectRatio="xMidYMid meet" viewBox="0 0 640 640" width="100" height="100"><defs><path d="M474.62 0C488.64 0 500 11.37 500 25.39C500 120.31 500 379.7 500 474.62C500 488.64 488.64 500 474.62 500C379.69 500 120.31 500 25.39 500C11.37 500 0 488.64 0 474.62C0 379.7 0 120.31 0 25.39C0 11.37 11.37 0 25.39 0C120.31 0 379.69 0 474.62 0Z" id="cEictEhN3"></path><path d="M170 150C170 177.59 147.6 200 120 200C92.41 200 70 177.59 70 150C70 122.4 92.41 100 120 100C147.6 100 170 122.4 170 150Z" id="bZEyyo5fG"></path><path d="M170 350C170 377.59 147.6 400 120 400C92.41 400 70 377.59 70 350C70 322.4 92.41 300 120 300C147.6 300 170 322.4 170 350Z" id="a6KFJR04u9"></path><path d="M425.46 150C425.46 177.6 403.05 200 375.46 200C347.86 200 325.46 177.6 325.46 150C325.46 122.41 347.86 100 375.46 100C403.05 100 425.46 122.41 425.46 150Z" id="bNoPiyPIL"></path><path d="M425.46 350C425.46 377.6 403.05 400 375.46 400C347.86 400 325.46 377.6 325.46 350C325.46 322.41 347.86 300 375.46 300C403.05 300 425.46 322.41 425.46 350Z" id="g47KsVtglV"></path></defs><g><g><g><use xlink:href="#cEictEhN3" opacity="1" fill="#000000" fill-opacity="1"></use><g><use xlink:href="#cEictEhN3" opacity="1" fill-opacity="0" stroke="#000000" stroke-width="0" stroke-opacity="1"></use></g></g><g transform="matrix(1 0 0 1 0 0)" vector-effect="non-scaling-stroke"><use xlink:href="#bZEyyo5fG" opacity="1" fill="#10e767" fill-opacity="1"></use></g><g><use xlink:href="#a6KFJR04u9" opacity="1" fill="#10e767" fill-opacity="1"></use></g><g><use xlink:href="#bNoPiyPIL" opacity="1" fill="#10e767" fill-opacity="1"></use></g><g><use xlink:href="#g47KsVtglV" opacity="1" fill="#10e767" fill-opacity="1"></use></g></g></g></svg>